<svg viewBox="0 0 300 71.1673" width="5000px" height="1186.1216227213542px" xmlns="http://www.w3.org/2000/svg" xmlns:xlink="http://www.w3.org/1999/xlink" preserveAspectRatio="none"><defs></defs><style>.companyName {fill:#FFFFFF;fill-opacity:1;}.icon1 {fill:#FFFFFF;fill-opacity:1;}.icon2 {fill:#D9D9D9;fill-opacity:1;}.icon3 {fill:#B4B4B4;fill-opacity:1;}.shapeStroke-str {stroke:#D9D9D9;stroke-opacity:1;}</style><g opacity="1" transform="rotate(0 0 6.887200000000007)">
<svg width="57.393" height="57.3929" x="0" y="6.887200000000007" version="1.1" preserveAspectRatio="none" viewBox="11.749923706054688 14.029107093811035 74.48509216308594 74.48509216308594">
  <g transform="matrix(1 0 0 1 0 0)" class="icon1"><title>sword</title><g stroke-width="1" fill-rule="evenodd"><g><path d="M48.1041182,23.528833 L47.508864,22.3025306 L47.4525243,15.244238 L47.9268399,14.1356823 L47.7722744,12.2031709 L47.1895059,11.3935513 L47.7795076,10.796752 L46.9240984,9.50467998 L46.944441,8.08339499 L46.9619824,6.85781603 L48.2346644,8.07727019 L49.0096937,6.45665055 L49.5297474,7.904563 L49.9796334,8.04899065 L50.7743184,6.63885159 L50.9708388,9.16714347 L50.4067889,10.3359975 L50.3871332,10.9472395 L50.9708388,11.3737556 L50.3518846,11.9241966 L50.2538255,14.0175896 L50.6461717,14.8465841 L50.7359952,22.5615456 L50.3266286,22.9935156 L50.2383425,23.9951163 L50.9708388,24.5262667 L53.4085176,24.4799084 L54.9265121,23.1390542 L55.998464,22.7781871 L56.4497774,21.6357947 L56.9290921,23.4560881 L55.4575467,24.7091747 L55.4622684,25.9058032 L57.2268931,26.1494113 L56.9989304,30.3060997 L56.303732,32.189618 L55.2468239,34.1993843 L53.1079714,36.2847984 L53.853572,33.7221671 L54.1675149,31.6943221 L53.9431758,30.1922745 L53.3683277,29.2045106 L52.4291345,28.259469 L53.6135303,27.7915436 L54.1321565,26.9944645 L53.4258674,26.2389968 L52.5539869,26.0597247 L51.4507396,26.1150718 L50.5213193,26.8910422 L50.5016636,29.8213076 L51.8359482,31.0935839 L50.6337634,46.331004 L51.1118701,59.6924807 L50.9708388,71.0008628 L51.2125646,85.8461064 L49.3185854,95.5083162 L47.6030452,86.1029452 L47.6521296,71.173368 L47.5481409,59.7061155 L48.0694024,46.4380623 L46.587535,31.1970062 L47.9511385,29.7466698 L47.8150856,26.9686089 L46.8014422,26.1409274 L45.7347612,26.1348675 L44.6752177,26.3731226 L44.1480265,27.2640291 L44.7478012,27.9058737 L45.9286832,28.2594689 L44.4646047,29.8037338 L44.1225509,33.7830691 L44.9981649,36.048665 L42.7824463,33.9064891 L41.3822765,31.6890702 L40.940736,28.443084 L40.940736,26.3731224 L42.4397336,25.734207 L42.6163059,24.5971675 L41.2575339,23.1390544 L41.3822765,21.6357944 L43.1919227,22.9983635 L43.646163,23.4214153 L44.5359803,24.2501372 L47.3600387,24.3674973 L48.1041182,23.528833 Z" transform="translate(48.689083, 51.016803) rotate(45.000000) translate(-48.689083, -51.016803) "></path></g></g></g>
</svg>
</g><g opacity="1" transform="rotate(0 79.20230000000001 15.496099999999984)">
<svg width="220.7977" height="40.1751" x="79.20230000000001" y="15.496099999999984" version="1.1" preserveAspectRatio="none" viewBox="3.32 -29.68 205.76 37.44">
  <g transform="matrix(1 0 0 1 0 0)" class="companyName"><path d="M3.32 0L3.32-28L16.04-28Q20.60-28 24.10-26.26Q27.60-24.52 29.54-21.36Q31.48-18.20 31.48-14L31.48-14Q31.48-9.80 29.54-6.64Q27.60-3.48 24.10-1.74Q20.60 0 16.04 0L16.04 0L3.32 0ZM9.80-5.32L15.72-5.32Q19.92-5.32 22.42-7.66Q24.92-10 24.92-14L24.92-14Q24.92-18 22.42-20.34Q19.92-22.68 15.72-22.68L15.72-22.68L9.80-22.68L9.80-5.32Z M44.60-21.84Q49.60-21.84 52.28-19.46Q54.96-17.08 54.96-12.28L54.96-12.28L54.96 0L49.12 0L49.12-2.68Q47.36 0.32 42.56 0.32L42.56 0.32Q40.08 0.32 38.26-0.52Q36.44-1.36 35.48-2.84Q34.52-4.32 34.52-6.20L34.52-6.20Q34.52-9.20 36.78-10.92Q39.04-12.64 43.76-12.64L43.76-12.64L48.72-12.64Q48.72-14.68 47.48-15.78Q46.24-16.88 43.76-16.88L43.76-16.88Q42.04-16.88 40.38-16.34Q38.72-15.80 37.56-14.88L37.56-14.88L35.32-19.24Q37.08-20.48 39.54-21.16Q42-21.84 44.60-21.84L44.60-21.84ZM44.12-3.88Q45.72-3.88 46.96-4.62Q48.20-5.36 48.72-6.80L48.72-6.80L48.72-9L44.44-9Q40.60-9 40.60-6.48L40.60-6.48Q40.60-5.28 41.54-4.58Q42.48-3.88 44.12-3.88L44.12-3.88Z M66.56-18.68Q67.68-20.24 69.58-21.04Q71.48-21.84 73.96-21.84L73.96-21.84L73.96-16.08Q72.92-16.16 72.56-16.16L72.56-16.16Q69.88-16.16 68.36-14.66Q66.84-13.16 66.84-10.16L66.84-10.16L66.84 0L60.60 0L60.60-21.52L66.56-21.52L66.56-18.68Z M93.72 0L86.92-8.44L83.92-5.48L83.92 0L77.68 0L77.68-29.68L83.92-29.68L83.92-12.88L93.04-21.52L100.48-21.52L91.52-12.40L101.28 0L93.72 0Z M110.60 0.32Q107.92 0.32 105.36-0.34Q102.80-1 101.28-2L101.28-2L103.36-6.48Q104.80-5.56 106.84-4.98Q108.88-4.40 110.84-4.40L110.84-4.40Q114.80-4.40 114.80-6.36L114.80-6.36Q114.80-7.28 113.72-7.68Q112.64-8.08 110.40-8.36L110.40-8.36Q107.76-8.76 106.04-9.28Q104.32-9.80 103.06-11.12Q101.80-12.44 101.80-14.88L101.80-14.88Q101.80-16.92 102.98-18.50Q104.16-20.08 106.42-20.96Q108.68-21.84 111.76-21.84L111.76-21.84Q114.04-21.84 116.30-21.34Q118.56-20.84 120.04-19.96L120.04-19.96L117.96-15.52Q115.12-17.12 111.76-17.12L111.76-17.12Q109.76-17.12 108.76-16.56Q107.76-16 107.76-15.12L107.76-15.12Q107.76-14.12 108.84-13.72Q109.92-13.32 112.28-12.96L112.28-12.96Q114.92-12.52 116.60-12.02Q118.28-11.52 119.52-10.20Q120.76-8.88 120.76-6.52L120.76-6.52Q120.76-4.52 119.56-2.96Q118.36-1.40 116.06-0.54Q113.76 0.32 110.60 0.32L110.60 0.32Z M153.24-21.52L158.76-21.52L150.96 0L144.96 0L140.12-13.36L135.12 0L129.12 0L121.36-21.52L127.24-21.52L132.32-6.96L137.60-21.52L142.88-21.52L148.00-6.96L153.24-21.52Z M169.64-21.84Q174.64-21.84 177.32-19.46Q180-17.08 180-12.28L180-12.28L180 0L174.16 0L174.16-2.68Q172.40 0.32 167.60 0.32L167.60 0.32Q165.12 0.32 163.30-0.52Q161.48-1.36 160.52-2.84Q159.56-4.32 159.56-6.20L159.56-6.20Q159.56-9.20 161.82-10.92Q164.08-12.64 168.80-12.64L168.80-12.64L173.76-12.64Q173.76-14.68 172.52-15.78Q171.28-16.88 168.80-16.88L168.80-16.88Q167.08-16.88 165.42-16.34Q163.76-15.80 162.60-14.88L162.60-14.88L160.36-19.24Q162.12-20.48 164.58-21.16Q167.04-21.84 169.64-21.84L169.64-21.84ZM169.16-3.88Q170.76-3.88 172-4.62Q173.24-5.36 173.76-6.80L173.76-6.80L173.76-9L169.48-9Q165.64-9 165.64-6.48L165.64-6.48Q165.64-5.28 166.58-4.58Q167.52-3.88 169.16-3.88L169.16-3.88Z M198.36-21.84Q201.36-21.84 203.82-20.46Q206.28-19.08 207.68-16.58Q209.08-14.08 209.08-10.76L209.08-10.76Q209.08-7.44 207.68-4.94Q206.28-2.44 203.82-1.06Q201.36 0.32 198.36 0.32L198.36 0.32Q194.24 0.32 191.88-2.28L191.88-2.28L191.88 7.76L185.64 7.76L185.64-21.52L191.60-21.52L191.60-19.04Q193.92-21.84 198.36-21.84L198.36-21.84ZM197.28-4.80Q199.68-4.80 201.22-6.42Q202.76-8.04 202.76-10.76L202.76-10.76Q202.76-13.48 201.22-15.10Q199.68-16.72 197.28-16.72L197.28-16.72Q194.88-16.72 193.34-15.10Q191.80-13.48 191.80-10.76L191.80-10.76Q191.80-8.04 193.34-6.42Q194.88-4.80 197.28-4.80L197.28-4.80Z"></path></g>
</svg>
</g><g opacity="1" transform="rotate(0 67.72370000000001 0)">
<svg width="2.2957" height="71.1673" x="67.72370000000001" y="0" version="1.1" preserveAspectRatio="none" viewBox="0 0 2.2957 71.1673">
  <rect x="0" y="0" width="2.2957" height="71.1673" class="companyName shapeStroke-str" style="stroke-width:0;" rx="0px" ry="0px"></rect>
</svg>
</g></svg>